<svg width="56" height="54" viewBox="0 0 56 54" fill="none" xmlns="http://www.w3.org/2000/svg">
<g id="&#240;&#159;&#166;&#134; icon &#34;facebook&#34;">
<g id="Group">
<path id="Vector" d="M33.0357 20.25V27.5H39.7119C40.2254 27.5 40.4822 28 40.4822 28.5L39.4551 33.25C39.4551 33.5 38.9416 33.75 38.6848 33.75H33.0357V52H25.3324V34H20.9672C20.4537 34 20.1969 33.75 20.1969 33.25V28.5C20.1969 28 20.4537 27.75 20.9672 27.75H25.3324V19.5C25.3324 15.25 28.6705 12 33.0357 12H39.9687C40.4822 12 40.739 12.25 40.739 12.75V18.75C40.739 19.25 40.4822 19.5 39.9687 19.5H33.806C33.2925 19.5 33.0357 19.75 33.0357 20.25Z" stroke="white" stroke-width="2" stroke-miterlimit="10" stroke-linecap="round"/>
<path id="Vector_2" d="M35.6034 52H20.1969C7.35805 52 2.22253 47 2.22253 34.5V19.5C2.22253 7 7.35805 2 20.1969 2H35.6034C48.4422 2 53.5777 7 53.5777 19.5V34.5C53.5777 47 48.4422 52 35.6034 52Z" stroke="white" stroke-width="3" stroke-linecap="round" stroke-linejoin="round"/>
</g>
</g>
</svg>
