<svg width="171" height="40" viewBox="0 0 171 40" fill="none" xmlns="http://www.w3.org/2000/svg">
<rect width="45" height="37" transform="translate(68)" fill="#222222"/>
<path d="M96.35 8.20163H99.875V3.29913C98.1683 3.15321 96.4534 3.08116 94.7375 3.0833C89.6375 3.0833 86.15 5.64246 86.15 10.3291V14.3683H80.3937V19.8566H86.15V33.9166H93.05V19.8566H98.7875L99.65 14.3683H93.05V10.8687C93.05 9.24997 93.575 8.20163 96.35 8.20163Z" fill="white"/>
<path d="M158.79 9.10004C158.355 9.10004 157.93 9.21734 157.568 9.4371C157.206 9.65686 156.924 9.96922 156.757 10.3347C156.591 10.7001 156.547 11.1023 156.632 11.4902C156.717 11.8782 156.927 12.2345 157.234 12.5143C157.542 12.794 157.934 12.9844 158.361 13.0616C158.788 13.1388 159.23 13.0992 159.632 12.9478C160.034 12.7964 160.377 12.5401 160.619 12.2112C160.861 11.8823 160.99 11.4956 160.99 11.1C160.99 10.5696 160.758 10.0609 160.346 9.68583C159.933 9.31075 159.373 9.10004 158.79 9.10004ZM167.223 13.1334C167.188 11.7505 166.903 10.3824 166.38 9.08337C165.914 7.97193 165.188 6.9655 164.253 6.13337C163.345 5.27908 162.236 4.62367 161.008 4.21671C159.583 3.72698 158.077 3.46206 156.553 3.43337C154.61 3.33337 153.987 3.33337 149 3.33337C144.013 3.33337 143.39 3.33337 141.447 3.43337C139.923 3.46206 138.417 3.72698 136.992 4.21671C135.766 4.62779 134.658 5.28264 133.747 6.13337C132.807 6.95867 132.086 7.96744 131.638 9.08337C131.1 10.3789 130.808 11.7486 130.777 13.1334C130.667 14.9 130.667 15.4667 130.667 20C130.667 24.5334 130.667 25.1 130.777 26.8667C130.808 28.2515 131.1 29.6211 131.638 30.9167C132.086 32.0326 132.807 33.0414 133.747 33.8667C134.658 34.7174 135.766 35.3723 136.992 35.7834C138.417 36.2731 139.923 36.538 141.447 36.5667C143.39 36.6667 144.013 36.6667 149 36.6667C153.987 36.6667 154.61 36.6667 156.553 36.5667C158.077 36.538 159.583 36.2731 161.008 35.7834C162.236 35.3764 163.345 34.721 164.253 33.8667C165.192 33.0377 165.919 32.0304 166.38 30.9167C166.903 29.6177 167.188 28.2495 167.223 26.8667C167.223 25.1 167.333 24.5334 167.333 20C167.333 15.4667 167.333 14.9 167.223 13.1334ZM163.923 26.6667C163.91 27.7247 163.699 28.7729 163.3 29.7667C163.007 30.492 162.537 31.1474 161.925 31.6834C161.33 32.2342 160.611 32.6608 159.817 32.9334C158.723 33.2963 157.57 33.4879 156.407 33.5C154.573 33.5834 153.895 33.6 149.073 33.6C144.252 33.6 143.573 33.6 141.74 33.5C140.532 33.5206 139.328 33.3515 138.183 33C137.424 32.7135 136.737 32.288 136.167 31.75C135.558 31.2146 135.094 30.5587 134.81 29.8334C134.362 28.8253 134.114 27.7533 134.077 26.6667C134.077 25 133.967 24.3834 133.967 20C133.967 15.6167 133.967 15 134.077 13.3334C134.085 12.2518 134.302 11.1799 134.718 10.1667C135.041 9.46323 135.536 8.83614 136.167 8.33337C136.724 7.76032 137.412 7.3052 138.183 7.00004C139.301 6.63345 140.479 6.44184 141.667 6.43337C143.5 6.43337 144.178 6.33337 149 6.33337C153.822 6.33337 154.5 6.33337 156.333 6.43337C157.497 6.44551 158.65 6.63712 159.743 7.00004C160.576 7.28113 161.324 7.73812 161.925 8.33337C162.526 8.84534 162.995 9.47126 163.3 10.1667C163.707 11.1816 163.918 12.253 163.923 13.3334C164.015 15 164.033 15.6167 164.033 20C164.033 24.3834 164.015 25 163.923 26.6667ZM149 11.45C147.141 11.4533 145.324 11.9576 143.78 12.8991C142.236 13.8406 141.033 15.177 140.324 16.7396C139.615 18.3022 139.431 20.0208 139.796 21.6783C140.161 23.3357 141.058 24.8576 142.374 26.0517C143.691 27.2457 145.366 28.0584 147.19 28.387C149.014 28.7155 150.904 28.5452 152.622 27.8976C154.339 27.25 155.807 26.1541 156.84 24.7484C157.872 23.3428 158.423 21.6904 158.423 20C158.426 18.8752 158.184 17.7611 157.711 16.7216C157.238 15.6822 156.543 14.7381 155.668 13.9435C154.792 13.1489 153.752 12.5195 152.608 12.0916C151.463 11.6637 150.237 11.4456 149 11.45ZM149 25.55C147.793 25.55 146.612 25.2245 145.608 24.6147C144.604 24.0049 143.822 23.1381 143.36 22.1239C142.898 21.1098 142.777 19.9939 143.012 18.9173C143.248 17.8407 143.829 16.8518 144.683 16.0756C145.537 15.2994 146.625 14.7708 147.809 14.5567C148.993 14.3425 150.221 14.4524 151.336 14.8725C152.452 15.2926 153.405 16.0039 154.076 16.9166C154.747 17.8293 155.105 18.9024 155.105 20C155.105 20.7289 154.947 21.4506 154.64 22.1239C154.333 22.7973 153.884 23.4091 153.317 23.9245C152.75 24.4398 152.077 24.8487 151.336 25.1276C150.596 25.4065 149.802 25.55 149 25.55Z" fill="white"/>
<path d="M45.9901 13.6302C46.0867 10.5767 45.4753 7.54602 44.2126 4.81959C43.3559 3.70086 42.1669 2.9459 40.8529 2.68626C35.4178 2.14764 29.9603 1.92689 24.5037 2.02492C19.0669 1.92244 13.629 2.13607 8.21303 2.66492C7.14226 2.87765 6.15135 3.42618 5.3612 4.24359C3.60321 6.01425 3.40788 9.04358 3.21255 11.6036C2.92915 16.2064 2.92915 20.8248 3.21255 25.4275C3.26906 26.8684 3.46549 28.2986 3.79855 29.6942C4.03407 30.7717 4.51057 31.7685 5.1854 32.5955C5.98092 33.4562 6.99492 34.036 8.09583 34.2595C12.307 34.8272 16.5502 35.0625 20.7924 34.9635C27.629 35.0702 33.6256 34.9635 40.7162 34.3662C41.8441 34.1564 42.8867 33.5759 43.7047 32.7022C44.2516 32.1047 44.66 31.3733 44.8962 30.5689C45.5948 28.2278 45.9379 25.7776 45.912 23.3156C45.9901 22.1209 45.9901 14.9102 45.9901 13.6302ZM20.0892 24.5955V11.3902L31.6528 18.0249C28.4103 19.9876 24.1325 22.2062 20.0892 24.5955Z" fill="white"/>
</svg>
