<svg width="55" height="54" viewBox="0 0 55 54" fill="none" xmlns="http://www.w3.org/2000/svg">
<g id="&#240;&#159;&#166;&#134; icon &#34;instagram&#34;">
<g id="Group">
<path id="Vector" d="M19.9743 52H35.3809C48.2197 52 53.3552 47 53.3552 34.5V19.5C53.3552 7 48.2197 2 35.3809 2H19.9743C7.13552 2 2 7 2 19.5V34.5C2 47 7.13552 52 19.9743 52Z" stroke="white" stroke-width="2.6935" stroke-linecap="round" stroke-linejoin="round"/>
<path id="Vector_2" d="M27.6776 35.75C32.6411 35.75 36.6648 31.8325 36.6648 27C36.6648 22.1675 32.6411 18.25 27.6776 18.25C22.7141 18.25 18.6904 22.1675 18.6904 27C18.6904 31.8325 22.7141 35.75 27.6776 35.75Z" stroke="white" stroke-width="2.6935" stroke-linecap="round" stroke-linejoin="round"/>
<path id="Vector_3" d="M42.1497 14.5H42.1784" stroke="white" stroke-width="3.59133" stroke-linecap="round" stroke-linejoin="round"/>
</g>
</g>
</svg>
