<svg width="63" height="50" viewBox="0 0 63 50" fill="none" xmlns="http://www.w3.org/2000/svg">
<g id="&#240;&#159;&#166;&#134; icon &#34;whatsapp&#34;">
<g id="Group">
<path id="Vector" d="M1.02421 47.9492L1.02451 47.9483L4.63528 36.9999L4.71138 36.7692L4.57701 36.5668C2.22161 33.0185 0.992293 29.0229 0.992293 24.9883C0.992293 11.5729 14.4781 0.5 31.2982 0.5C48.1183 0.5 61.6042 11.5729 61.6042 24.9883C61.6042 38.4038 48.1183 49.4768 31.2982 49.4768C26.1776 49.4768 21.1747 48.444 16.7134 46.4743L16.5625 46.4076L16.4015 46.4439L3.10472 49.4425L3.10182 49.4432C2.93122 49.4827 2.79756 49.5 2.64155 49.5C2.17239 49.5 1.74177 49.347 1.43764 49.1003C1.0256 48.7661 0.9002 48.3228 1.02421 47.9492ZM7.93713 36.0411L7.93944 36.0443C8.13878 36.3192 8.18828 36.6418 8.09825 36.9205C8.09814 36.9208 8.09803 36.9211 8.09792 36.9215L5.23298 45.6129L4.95679 46.4507L5.81752 46.2572L16.3632 43.8862L16.3736 43.8839L16.384 43.8811C16.5084 43.8474 16.6647 43.8287 16.798 43.8287C17.0849 43.8287 17.3878 43.9 17.6856 44.0193C21.7939 45.9782 26.5049 47.0132 31.2982 47.0132C46.0864 47.0132 58.3056 37.2354 58.3056 25.0116C58.3056 12.7879 46.0864 3.01002 31.2982 3.01002C16.5101 3.01002 4.2908 12.7879 4.2908 25.0116C4.2908 28.9117 5.55977 32.7081 7.93713 36.0411Z" fill="white" stroke="black"/>
<path id="Vector_2" d="M33.7853 36.9285L33.7838 36.928C32.0108 36.3116 30.2364 35.4893 28.5176 34.4607L28.5164 34.4601C26.8164 33.4488 25.1465 32.3006 23.6201 31.0626C22.09 29.7984 20.6765 28.4681 19.4352 27.0952C18.1659 25.6536 17.1604 24.2459 16.4386 22.8724C15.667 21.3969 15.2922 19.9651 15.2922 18.6183C15.2922 17.6725 15.5037 16.7696 15.9025 15.9281C16.3201 15.0607 17.0076 14.2593 17.9326 13.5531L17.9327 13.5532L17.9412 13.5464C19.6566 12.1766 22.1079 11.6963 24.0105 12.4362L24.0104 12.4364L24.0237 12.4411C24.6589 12.6678 25.1839 13.035 25.5823 13.5197L25.5874 13.5259L25.5927 13.5319L28.9166 17.3208L28.9165 17.3209L28.9253 17.3305C29.2327 17.663 29.4653 18.0177 29.648 18.3771C29.8573 18.8023 29.9677 19.1882 29.9677 19.5248C29.9677 20.0157 29.8052 20.5157 29.4657 20.9681L29.4636 20.9709C29.2278 21.2896 28.8838 21.6765 28.433 22.0421L28.4259 22.0479L28.419 22.0539L28.0465 22.3793L27.6592 22.7177L28.0083 23.0953C28.0336 23.1227 28.0603 23.1519 28.0886 23.183C28.242 23.3512 28.4435 23.572 28.7274 23.8238C29.3286 24.381 29.9968 24.9938 30.7255 25.5849L30.7255 25.585L30.7333 25.5911L30.7401 25.5964C31.4518 26.1506 32.1787 26.7166 32.9082 27.2137L32.9098 27.2148C33.251 27.4454 33.5625 27.6487 33.8237 27.7811L34.113 27.9278L34.3649 27.7234L34.7657 27.398C34.7657 27.398 34.7657 27.398 34.7658 27.3979C35.255 27.0011 35.7287 26.7056 36.1863 26.52L36.2075 26.5114L36.2278 26.501C37.0402 26.0816 38.3587 25.9649 39.5328 26.367L39.541 26.3698L39.5493 26.3723C39.9632 26.4982 40.3869 26.69 40.8506 26.9555L45.6364 29.6983L45.6393 29.6999C46.2183 30.0267 46.6657 30.4707 46.9635 30.9673C47.2122 31.477 47.305 31.9085 47.305 32.3561C47.305 32.9508 47.1352 33.5379 46.8016 34.123C46.4534 34.6868 46.0539 35.1832 45.5755 35.6369C44.7115 36.4019 43.7118 36.972 42.6271 37.346C41.5394 37.721 40.3627 37.8998 39.1504 37.8998C37.4361 37.8998 35.6581 37.586 33.7853 36.9285ZM22.3376 14.6685L22.2262 14.6082H22.0997C21.8616 14.6082 21.163 14.6222 20.3285 15.2969C19.7365 15.7528 19.3156 16.2469 19.0212 16.8041C18.7187 17.3766 18.5907 18.0175 18.5907 18.6415C18.5907 19.7167 18.9063 20.8411 19.5057 22.0081L19.5064 22.0095C20.1325 23.2187 21.048 24.4846 22.155 25.737L22.155 25.737L22.1593 25.7418C23.2909 26.9892 24.5702 28.2395 25.9975 29.3971L25.9975 29.3971L26.0014 29.4003C27.4211 30.5283 28.9287 31.587 30.4964 32.529L30.499 32.5305C32.0181 33.431 33.5671 34.1421 35.1159 34.6873C37.3475 35.4733 39.4764 35.6921 41.257 35.0852C41.9085 34.8732 42.4776 34.5084 43.0188 34.0694L43.0289 34.0612L43.0386 34.0525C43.3274 33.7922 43.5655 33.5191 43.7691 33.1612L43.773 33.1544L43.7766 33.1475C43.8881 32.9365 43.9775 32.6698 43.9775 32.4026V32.4012C43.9775 32.3662 43.9776 32.2854 43.9502 32.1819C43.9241 32.0831 43.8795 31.9855 43.8172 31.8845L43.7495 31.7746L43.637 31.7113L38.8539 29.0163C38.6349 28.8896 38.393 28.7742 38.1633 28.7121L38.0008 28.6682L37.8448 28.7314C37.6938 28.7927 37.4771 28.8857 37.1163 29.1784L36.0273 30.0617C35.3487 30.6122 34.2155 30.7909 33.2856 30.5315L32.7995 30.3562C32.1826 30.0939 31.472 29.696 30.6679 29.1337L30.6668 29.1329C29.8767 28.5836 29.1132 28.0101 28.2896 27.3652C27.4954 26.6978 26.7895 26.0792 26.1136 25.4397C25.3947 24.7444 24.9091 24.1965 24.5907 23.7498L24.3073 23.2064C24.2554 23.053 24.2331 22.8714 24.2331 22.6861C24.2331 22.1997 24.4412 21.7527 24.8867 21.3715L25.9708 20.469C26.3023 20.1999 26.4661 20.0193 26.5661 19.8569L26.7161 19.6137L26.5826 19.361C26.467 19.1422 26.3179 18.9651 26.1725 18.8C26.1723 18.7997 26.1721 18.7995 26.1719 18.7992L22.82 14.9652L22.7607 14.8973L22.6814 14.8545L22.3376 14.6685Z" fill="white" stroke="black"/>
</g>
</g>
</svg>
