<svg width="54" height="50" viewBox="0 0 54 50" fill="none" xmlns="http://www.w3.org/2000/svg">
<g id="&#240;&#159;&#166;&#134; icon &#34;youtube&#34;">
<path id="Vector" d="M32.5385 28.628L32.5382 28.6281L25.9424 33.253L32.5385 28.628ZM32.5385 28.628C33.9114 27.664 34.6539 26.3593 34.6539 24.9961C34.6539 23.6337 33.9123 22.3223 32.5418 21.3431L32.5382 21.3406M32.5385 28.628L32.5382 21.3406M32.5382 21.3406L25.9424 16.7158C24.5164 15.7146 23.0679 15.5033 21.948 16.243C20.8622 16.96 20.2948 18.4431 20.2948 20.3438V29.625C20.2948 31.5256 20.8622 33.0087 21.948 33.7258M32.5382 21.3406L21.948 33.7258M21.948 33.7258C23.0678 34.4654 24.5162 34.2542 25.9422 33.2531L21.948 33.7258ZM13.8516 0.5H40.5563C44.4224 0.5 47.6192 2.00342 49.8567 4.6217C52.1001 7.24703 53.4087 11.0298 53.4087 15.625V34.375C53.4087 38.9702 52.1001 42.753 49.8567 45.3783C47.6192 47.9966 44.4224 49.5 40.5563 49.5H13.8516C9.98553 49.5 6.78874 47.9966 4.55128 45.3783C2.3078 42.753 0.999268 38.9702 0.999268 34.375V15.625C0.999268 11.0298 2.3078 7.24703 4.55128 4.6217C6.78874 2.00342 9.98553 0.5 13.8516 0.5Z" fill="white" stroke="black"/>
</g>
</svg>
